<svg width="32" height="32" viewBox="0 0 32 32" fill="none" xmlns="http://www.w3.org/2000/svg">
<path fill-rule="evenodd" clip-rule="evenodd" d="M10 5C10 4.44772 10.4477 4 11 4H21C21.5523 4 22 4.44772 22 5V9C22 9.55228 21.5523 10 21 10H11C10.4477 10 10 9.55228 10 9V5ZM12 6V8H20V6H12Z" fill="#0ACF83"/>
<path fill-rule="evenodd" clip-rule="evenodd" d="M2 9C2 8.44772 2.44772 8 3 8H29C29.5523 8 30 8.44772 30 9V27C30 27.5523 29.5523 28 29 28H3C2.44772 28 2 27.5523 2 27V9ZM4 10V26H28V10H4Z" fill="#0ACF83"/>
<path fill-rule="evenodd" clip-rule="evenodd" d="M2 9C2 8.44772 2.44772 8 3 8H29C29.5523 8 30 8.44772 30 9V16C30 16.4767 29.6635 16.8871 29.1961 16.9806L19.1961 18.9806C18.6546 19.0889 18.1277 18.7377 18.0194 18.1961C17.9111 17.6546 18.2623 17.1277 18.8039 17.0194L28 15.1802V10H4V15.1802L13.1961 17.0194C13.7377 17.1277 14.0889 17.6546 13.9806 18.1961C13.8723 18.7377 13.3454 19.0889 12.8039 18.9806L2.80388 16.9806C2.33646 16.8871 2 16.4767 2 16V9Z" fill="#0ACF83"/>
<path fill-rule="evenodd" clip-rule="evenodd" d="M13 16C13 15.4477 13.4477 15 14 15H18C18.5523 15 19 15.4477 19 16V20C19 20.5523 18.5523 21 18 21H14C13.4477 21 13 20.5523 13 20V16ZM15 17V19H17V17H15Z" fill="#0ACF83"/>
</svg>
