<svg width="32" height="32" viewBox="0 0 32 32" fill="none" xmlns="http://www.w3.org/2000/svg">
<path fill-rule="evenodd" clip-rule="evenodd" d="M22 14C22 13.4477 22.4477 13 23 13H28C28.5523 13 29 13.4477 29 14V29C29 29.5523 28.5523 30 28 30H23C22.4477 30 22 29.5523 22 29V14ZM24 15V28H27V15H24ZM12 18C12 17.4477 12.4477 17 13 17H18C18.5523 17 19 17.4477 19 18V29C19 29.5523 18.5523 30 18 30H13C12.4477 30 12 29.5523 12 29V18ZM14 19V28H17V19H14ZM2 22C2 21.4477 2.44772 21 3 21H8C8.55228 21 9 21.4477 9 22V29C9 29.5523 8.55228 30 8 30H3C2.44772 30 2 29.5523 2 29V22ZM4 23V28H7V23H4Z" fill="#222831" fill-opacity="0.65"/>
<path fill-rule="evenodd" clip-rule="evenodd" d="M24 3C24 2.44772 24.4477 2 25 2H29C29.5523 2 30 2.44772 30 3V7C30 7.55228 29.5523 8 29 8C28.4477 8 28 7.55228 28 7V5.22684L20.6644 11.7474C20.3327 12.0422 19.8463 12.0832 19.47 11.848L11.9701 7.16057L3.48564 11.8742C3.00286 12.1424 2.39405 11.9684 2.12584 11.4856C1.85763 11.0029 2.03157 10.3941 2.51436 10.1258L11.5144 5.12584C11.8324 4.94913 12.2214 4.95914 12.53 5.152L19.8952 9.75523L26.3698 4H25C24.4477 4 24 3.55228 24 3Z" fill="#0ACF83"/>
</svg>
