<svg width="32" height="32" viewBox="0 0 32 32" fill="none" xmlns="http://www.w3.org/2000/svg">
<path fill-rule="evenodd" clip-rule="evenodd" d="M6.5 13C6.22386 13 6 13.2239 6 13.5C6 13.7761 6.22386 14 6.5 14C6.77614 14 7 13.7761 7 13.5C7 13.2239 6.77614 13 6.5 13ZM4 13.5C4 12.1193 5.11929 11 6.5 11C7.88071 11 9 12.1193 9 13.5C9 14.8807 7.88071 16 6.5 16C5.11929 16 4 14.8807 4 13.5Z" fill="#222831" fill-opacity="0.65"/>
<path fill-rule="evenodd" clip-rule="evenodd" d="M6.49999 17C6.05117 17 5.70518 17.1096 5.42826 17.268C4.9621 17.5347 4.58276 18.1467 4.3164 18.8789C4.1922 19.2203 4.10939 19.5411 4.05787 19.7772C4.0323 19.8943 4.01492 19.9883 4.00425 20.0507C3.99893 20.0818 3.99531 20.1049 3.99319 20.1189L3.99113 20.1329C3.91784 20.6801 3.41498 21.0642 2.86771 20.9912C2.32028 20.9182 1.93572 20.4151 2.00878 19.8677L2.99999 20C2.00878 19.8677 2.00875 19.868 2.00878 19.8677L2.00913 19.8652L2.00961 19.8616L2.01102 19.8516L2.01566 19.82C2.01959 19.794 2.02525 19.7581 2.03285 19.7137C2.04804 19.6248 2.0711 19.5008 2.10388 19.3506C2.16906 19.0521 2.27457 18.6414 2.4369 18.1952C2.74362 17.352 3.33015 16.1641 4.43524 15.532C5.0132 15.2014 5.70129 15 6.49999 15C8.51451 15 9.6546 16.4094 10.2344 17.5454C10.5311 18.1267 10.7173 18.6976 10.8293 19.1167C10.8859 19.3283 10.9249 19.5062 10.9502 19.634C10.9629 19.698 10.9722 19.7498 10.9786 19.7873C10.9818 19.8061 10.9842 19.8214 10.986 19.8329L10.9883 19.8472L10.989 19.8522L10.9893 19.8541C10.9894 19.8545 10.9895 19.8557 10.0301 19.9956L10.9895 19.8557C11.0692 20.4022 10.6908 20.9098 10.1443 20.9895C9.59863 21.0691 9.0917 20.692 9.01083 20.1468L9.01042 20.1442L9.0069 20.1228C9.00332 20.1018 8.99724 20.0676 8.98826 20.0223C8.97026 19.9313 8.94091 19.7967 8.89721 19.6333C8.80875 19.3024 8.66678 18.8733 8.45306 18.4546C8.01206 17.5906 7.40214 17 6.49999 17ZM9.01066 20.1456C9.01063 20.1455 9.01068 20.1458 9.01066 20.1456V20.1456ZM9.01066 20.1456C9.01061 20.1453 9.01047 20.1445 9.01042 20.1442L9.99999 20C9.01046 20.1443 9.01061 20.1453 9.01066 20.1456Z" fill="#222831" fill-opacity="0.65"/>
<path fill-rule="evenodd" clip-rule="evenodd" d="M24.5 4C24.2239 4 24 4.22386 24 4.5C24 4.77614 24.2239 5 24.5 5C24.7761 5 25 4.77614 25 4.5C25 4.22386 24.7761 4 24.5 4ZM22 4.5C22 3.11929 23.1193 2 24.5 2C25.8807 2 27 3.11929 27 4.5C27 5.88071 25.8807 7 24.5 7C23.1193 7 22 5.88071 22 4.5Z" fill="#222831" fill-opacity="0.65"/>
<path fill-rule="evenodd" clip-rule="evenodd" d="M24.5 8C24.0512 8 23.7052 8.10963 23.4283 8.26803C22.9621 8.53467 22.5828 9.14671 22.3164 9.87889C22.1922 10.2203 22.1094 10.5411 22.0579 10.7772C22.0323 10.8943 22.0149 10.9883 22.0043 11.0507C21.9989 11.0818 21.9953 11.1049 21.9932 11.1189L21.9911 11.1329C21.9178 11.6801 21.415 12.0642 20.8677 11.9912C20.3203 11.9182 19.9357 11.4151 20.0088 10.8677L21 11C20.0088 10.8677 20.0087 10.868 20.0088 10.8677L20.0091 10.8652L20.0096 10.8616L20.011 10.8516L20.0157 10.82C20.0196 10.794 20.0252 10.7581 20.0329 10.7137C20.048 10.6248 20.0711 10.5008 20.1039 10.3506C20.1691 10.0521 20.2746 9.64141 20.4369 9.19517C20.7436 8.35204 21.3301 7.16408 22.4352 6.53197C23.0132 6.20138 23.7013 6 24.5 6C26.5145 6 27.6546 7.40938 28.2344 8.54538C28.5311 9.12665 28.7173 9.69758 28.8293 10.1167C28.8859 10.3283 28.9249 10.5062 28.9502 10.634C28.9629 10.698 28.9722 10.7498 28.9786 10.7873C28.9818 10.8061 28.9842 10.8214 28.986 10.8329L28.9883 10.8472L28.989 10.8522L28.9893 10.8541C28.9894 10.8545 28.9895 10.8557 28.0301 10.9956L28.9895 10.8557C29.0692 11.4022 28.6908 11.9098 28.1443 11.9895C27.5986 12.0691 27.0917 11.692 27.0108 11.1468L27.0104 11.1442L27.0069 11.1228C27.0033 11.1018 26.9972 11.0676 26.9883 11.0223C26.9703 10.9313 26.9409 10.7967 26.8972 10.6333C26.8087 10.3024 26.6668 9.87335 26.4531 9.45462C26.0121 8.59062 25.4021 8 24.5 8ZM27.0107 11.1456C27.0106 11.1455 27.0107 11.1458 27.0107 11.1456V11.1456ZM27.0107 11.1456C27.0106 11.1453 27.0105 11.1445 27.0104 11.1442L28 11C27.0105 11.1443 27.0106 11.1453 27.0107 11.1456Z" fill="#222831" fill-opacity="0.65"/>
<path fill-rule="evenodd" clip-rule="evenodd" d="M24.5 13C24.2239 13 24 13.2239 24 13.5C24 13.7761 24.2239 14 24.5 14C24.7761 14 25 13.7761 25 13.5C25 13.2239 24.7761 13 24.5 13ZM22 13.5C22 12.1193 23.1193 11 24.5 11C25.8807 11 27 12.1193 27 13.5C27 14.8807 25.8807 16 24.5 16C23.1193 16 22 14.8807 22 13.5Z" fill="#222831" fill-opacity="0.65"/>
<path fill-rule="evenodd" clip-rule="evenodd" d="M24.5 17C24.0512 17 23.7052 17.1096 23.4283 17.268C22.9621 17.5347 22.5828 18.1467 22.3164 18.8789C22.1922 19.2203 22.1094 19.5411 22.0579 19.7772C22.0323 19.8943 22.0149 19.9883 22.0043 20.0507C21.9989 20.0818 21.9953 20.1049 21.9932 20.1189L21.9911 20.1329C21.9178 20.6801 21.415 21.0642 20.8677 20.9912C20.3203 20.9182 19.9357 20.4151 20.0088 19.8677L21 20C20.0088 19.8677 20.0087 19.868 20.0088 19.8677L20.0091 19.8652L20.0096 19.8616L20.011 19.8516L20.0157 19.82C20.0196 19.794 20.0252 19.7581 20.0329 19.7137C20.048 19.6248 20.0711 19.5008 20.1039 19.3506C20.1691 19.0521 20.2746 18.6414 20.4369 18.1952C20.7436 17.352 21.3301 16.1641 22.4352 15.532C23.0132 15.2014 23.7013 15 24.5 15C26.5145 15 27.6546 16.4094 28.2344 17.5454C28.5311 18.1267 28.7173 18.6976 28.8293 19.1167C28.8859 19.3283 28.9249 19.5062 28.9502 19.634C28.9629 19.698 28.9722 19.7498 28.9786 19.7873C28.9818 19.8061 28.9842 19.8214 28.986 19.8329L28.9883 19.8472L28.989 19.8522L28.9893 19.8541C28.9894 19.8545 28.9895 19.8557 28.0301 19.9956L28.9895 19.8557C29.0692 20.4022 28.6908 20.9098 28.1443 20.9895C27.5986 21.0691 27.0917 20.692 27.0108 20.1468L27.0104 20.1442L27.0069 20.1228C27.0033 20.1018 26.9972 20.0676 26.9883 20.0223C26.9703 19.9313 26.9409 19.7967 26.8972 19.6333C26.8087 19.3024 26.6668 18.8733 26.4531 18.4546C26.0121 17.5906 25.4021 17 24.5 17ZM27.0107 20.1456C27.0106 20.1455 27.0107 20.1458 27.0107 20.1456V20.1456ZM27.0107 20.1456C27.0106 20.1453 27.0105 20.1445 27.0104 20.1442L28 20C27.0105 20.1443 27.0106 20.1453 27.0107 20.1456Z" fill="#222831" fill-opacity="0.65"/>
<path fill-rule="evenodd" clip-rule="evenodd" d="M24.5 22C24.2239 22 24 22.2239 24 22.5C24 22.7761 24.2239 23 24.5 23C24.7761 23 25 22.7761 25 22.5C25 22.2239 24.7761 22 24.5 22ZM22 22.5C22 21.1193 23.1193 20 24.5 20C25.8807 20 27 21.1193 27 22.5C27 23.8807 25.8807 25 24.5 25C23.1193 25 22 23.8807 22 22.5Z" fill="#222831" fill-opacity="0.65"/>
<path fill-rule="evenodd" clip-rule="evenodd" d="M24.5 26C24.0512 26 23.7052 26.1096 23.4283 26.268C22.9621 26.5347 22.5828 27.1467 22.3164 27.8789C22.1922 28.2203 22.1094 28.5411 22.0579 28.7772C22.0323 28.8943 22.0149 28.9883 22.0043 29.0507C21.9989 29.0818 21.9953 29.1049 21.9932 29.1189L21.9911 29.1329C21.9178 29.6801 21.415 30.0642 20.8677 29.9912C20.3203 29.9182 19.9357 29.4151 20.0088 28.8677L21 29C20.0088 28.8677 20.0087 28.868 20.0088 28.8677L20.0091 28.8652L20.0096 28.8616L20.011 28.8516L20.0157 28.82C20.0196 28.794 20.0252 28.7581 20.0329 28.7137C20.048 28.6248 20.0711 28.5008 20.1039 28.3506C20.1691 28.0521 20.2746 27.6414 20.4369 27.1952C20.7436 26.352 21.3301 25.1641 22.4352 24.532C23.0132 24.2014 23.7013 24 24.5 24C26.5145 24 27.6546 25.4094 28.2344 26.5454C28.5311 27.1267 28.7173 27.6976 28.8293 28.1167C28.8859 28.3283 28.9249 28.5062 28.9502 28.634C28.9629 28.698 28.9722 28.7498 28.9786 28.7873C28.9818 28.8061 28.9842 28.8214 28.986 28.8329L28.9883 28.8472L28.989 28.8522L28.9893 28.8541C28.9894 28.8545 28.9895 28.8557 28.0301 28.9956L28.9895 28.8557C29.0692 29.4022 28.6908 29.9098 28.1443 29.9895C27.5986 30.0691 27.0917 29.692 27.0108 29.1468L27.0104 29.1442L27.0069 29.1228C27.0033 29.1018 26.9972 29.0676 26.9883 29.0223C26.9703 28.9313 26.9409 28.7967 26.8972 28.6333C26.8087 28.3024 26.6668 27.8733 26.4531 27.4546C26.0121 26.5906 25.4021 26 24.5 26ZM27.0107 29.1456C27.0106 29.1455 27.0107 29.1458 27.0107 29.1456V29.1456ZM27.0107 29.1456C27.0106 29.1453 27.0105 29.1445 27.0104 29.1442L28 29C27.0105 29.1443 27.0106 29.1453 27.0107 29.1456Z" fill="#222831" fill-opacity="0.65"/>
<path fill-rule="evenodd" clip-rule="evenodd" d="M13 7C13 6.44772 13.4477 6 14 6H19C19.5523 6 20 6.44772 20 7C20 7.55228 19.5523 8 19 8H15V15H19C19.5523 15 20 15.4477 20 16C20 16.5523 19.5523 17 19 17H15V24H19C19.5523 24 20 24.4477 20 25C20 25.5523 19.5523 26 19 26H14C13.4477 26 13 25.5523 13 25V17H11C10.4477 17 10 16.5523 10 16C10 15.4477 10.4477 15 11 15H13V7Z" fill="#0ACF83"/>
</svg>
